<mxfile host="app.diagrams.net" modified="2023-02-20T12:17:29.041Z" agent="5.0 (Windows NT 10.0; Win64; x64) AppleWebKit/537.36 (KHTML, like Gecko) Chrome/109.0.0.0 Safari/537.36" etag="9IYviURZLu6K6MPvLUns" version="20.8.20" type="github">
  <diagram name="第 1 页" id="L4vdhgiQjDFBIKtXPQk2">
    <mxGraphModel dx="1050" dy="493" grid="1" gridSize="10" guides="1" tooltips="1" connect="1" arrows="1" fold="1" page="1" pageScale="1" pageWidth="827" pageHeight="1169" math="0" shadow="0">
      <root>
        <mxCell id="0" />
        <mxCell id="1" parent="0" />
        <mxCell id="5wGxfzAdoBYVDlcDzX59-1" value="数据驱动的算法" style="ellipse;whiteSpace=wrap;html=1;verticalAlign=top;fontSize=16;fontFamily=Times New Roman;" vertex="1" parent="1">
          <mxGeometry x="50" y="70" width="350" height="340" as="geometry" />
        </mxCell>
        <mxCell id="5wGxfzAdoBYVDlcDzX59-7" value="模型驱动的算法&lt;br&gt;&lt;br&gt;ADMM-Net&lt;br&gt;ISTA-Net&lt;br&gt;MoDL&lt;br&gt;等等" style="ellipse;whiteSpace=wrap;html=1;verticalAlign=top;fontSize=16;fontFamily=Times New Roman;" vertex="1" parent="1">
          <mxGeometry x="400" y="80" width="350" height="340" as="geometry" />
        </mxCell>
        <mxCell id="5wGxfzAdoBYVDlcDzX59-8" value="有监督的数据驱动算法：&lt;br&gt;MLP、UNet、ResNet、GAN等" style="ellipse;whiteSpace=wrap;html=1;aspect=fixed;fontSize=16;fontFamily=Times New Roman;" vertex="1" parent="1">
          <mxGeometry x="60" y="110" width="180" height="180" as="geometry" />
        </mxCell>
        <mxCell id="5wGxfzAdoBYVDlcDzX59-5" value="无监督的数据驱动算法：&lt;br&gt;自监督算法；&lt;br&gt;生成式模型等" style="ellipse;whiteSpace=wrap;html=1;aspect=fixed;fontSize=16;fontFamily=Times New Roman;align=center;" vertex="1" parent="1">
          <mxGeometry x="210" y="190" width="180" height="180" as="geometry" />
        </mxCell>
      </root>
    </mxGraphModel>
  </diagram>
</mxfile>
